<svg width="72" height="96" viewBox="0 0 72 96" fill="none" xmlns="http://www.w3.org/2000/svg">
<g clip-path="url(#clip0_13_37)">
<path fill-rule="evenodd" clip-rule="evenodd" d="M6.40733 28.4712C9.03428 26.6205 12.1904 25.6246 15.4286 25.6246C15.7187 25.6246 16.0068 25.6726 16.2805 25.7666C23.9316 28.3927 29.779 29.6206 35.6484 29.6116C41.5317 29.6026 47.6245 28.351 55.7728 25.7489C56.0307 25.6665 56.3002 25.6246 56.5714 25.6246C58.5975 25.6246 60.6038 26.0147 62.4757 26.7725C64.3476 27.5304 66.0484 28.6412 67.4811 30.0416C68.9137 31.4419 70.0502 33.1044 70.8256 34.934C71.6003 36.7621 71.9993 38.7213 72 40.7C72.0048 43.0436 71.4489 45.3558 70.3766 47.4519C69.5036 49.1585 68.3081 50.6834 66.8571 51.948L66.8572 77.4287C66.8572 82.7175 64.0742 87.3744 60.2805 90.6422C56.4944 93.9035 51.4604 96 46.5 96H12.8571C10.8112 96 8.84903 95.2056 7.40232 93.7915C5.95561 92.3775 5.14286 90.4596 5.14286 88.4598V51.9454C3.07303 50.1359 1.53468 47.8077 0.701791 45.2015C-0.263731 42.1804 -0.232261 38.9389 0.791743 35.9362C1.81575 32.9335 3.78037 30.3218 6.40733 28.4712ZM15.0162 30.6595C13.0028 30.7384 11.054 31.394 9.41441 32.5491C7.66311 33.7829 6.35336 35.524 5.67069 37.5258C4.98802 39.5276 4.96704 41.6886 5.61072 43.7027C6.2544 45.7168 7.53011 47.4819 9.25714 48.748C9.90464 49.2226 10.2857 49.9676 10.2857 50.7587V88.4598C10.2857 89.1264 10.5566 89.7657 11.0389 90.237C11.5211 90.7084 12.1752 90.9732 12.8571 90.9732H46.5C50.0396 90.9732 53.8985 89.4393 56.8802 86.8708C59.8544 84.3089 61.7143 80.9368 61.7143 77.4287L61.7143 50.7587C61.7143 49.9658 62.0971 49.2194 62.747 48.7449C64.0255 47.8116 65.063 46.5989 65.7767 45.2038C66.4903 43.8087 66.8604 42.2699 66.8571 40.7101V40.705C66.8571 39.3848 66.5911 38.0775 66.0742 36.8577C65.5573 35.6379 64.7996 34.5296 63.8445 33.5961C62.8894 32.6625 61.7555 31.9219 60.5076 31.4167C59.3785 30.9596 58.1761 30.7032 56.9569 30.6585C48.7715 33.2493 42.2033 34.6284 35.6565 34.6384C29.1094 34.6484 22.7644 33.2894 15.0162 30.6595Z" fill="#f2f5de22"/>
</g>
<path fill-rule="evenodd" clip-rule="evenodd" d="M57.4175 75.4883C58.2377 75.6017 58.8086 76.3436 58.6926 77.1454C57.8867 82.7138 53.8603 86.0606 49.3639 87.1593C48.5602 87.3557 47.7458 86.8781 47.5449 86.0925C47.344 85.307 47.8326 84.511 48.6363 84.3146C52.1399 83.4584 55.1135 80.9406 55.7222 76.7346C55.8382 75.9329 56.5972 75.3749 57.4175 75.4883Z" fill="#f2f5de22" fill-opacity="0.5"/>
<path d="M46.7705 25.0676C43.8135 27.5576 42.1652 28.2583 38.1933 27.9545C38.4999 23.181 39.4999 22.6923 42.3838 20.0904C45.3408 17.6005 48.4816 15.7945 54.2559 14.4291C52.6633 18.3365 49.7276 22.5777 46.7705 25.0676Z" fill="#9FB50E44"/>
<path d="M29.5497 4.11469C31.3281 13.0194 32.3574 18.8961 34.2111 28.1057C34.3294 28.6932 35.0182 28.9439 35.6287 28.9946C36.204 29.0423 36.9868 28.8176 36.9765 28.2533L36.5221 3.38094C36.4774 0.936168 33.9101 -0.683267 31.6126 0.284098C30.0887 0.925723 29.2318 2.52292 29.5497 4.11469Z" fill="#f2f5de22"/>
<defs>
<clipPath id="clip0_13_37">
<rect width="72" height="70.3754" fill="white" transform="translate(0 25.6246)"/>
</clipPath>
</defs>
</svg>
