<svg width="32" height="32" viewBox="0 0 32 32" fill="none"
  xmlns="http://www.w3.org/2000/svg">
  <path d="M30 8H2C1.73974 8 1.65271 8.34811 1.88235 8.47059L15.8824 15.9373C15.9559 15.9765 16.0441 15.9765 16.1176 15.9373L30.1176 8.47059C30.3473 8.34811 30.2603 8 30 8Z" fill="#442200"/>
  <path d="M1 22.503V9.41555C1 9.22708 1.20062 9.10639 1.36713 9.19469L11.6501 14.6478C11.8125 14.7339 11.8296 14.9599 11.682 15.0694L1.39902 22.7038C1.23407 22.8262 1 22.7085 1 22.503Z" fill="#442200"/>
  <path d="M1 22.503V9.41555C1 9.22708 1.20062 9.10639 1.36713 9.19469L11.6501 14.6478C11.8125 14.7339 11.8296 14.9599 11.682 15.0694L1.39902 22.7038C1.23407 22.8262 1 22.7085 1 22.503Z" fill="#442200"/>
  <path d="M31 22.503L31 9.41555C31 9.22708 30.7994 9.10639 30.6329 9.19469L20.3499 14.6478C20.1875 14.7339 20.1704 14.9599 20.318 15.0694L30.601 22.7038C30.7659 22.8262 31 22.7085 31 22.503Z" fill="#442200"/>
  <path d="M12.6223 15.3451L1.60497 23.5495C1.41193 23.6932 1.5136 24 1.75429 24H30.2457C30.4864 24 30.5881 23.6932 30.395 23.5495L19.3777 15.3451C19.2998 15.2871 19.1953 15.2794 19.1098 15.3255L16.1185 16.9362C16.0445 16.976 15.9555 16.976 15.8815 16.9362L12.8902 15.3255C12.8047 15.2794 12.7002 15.2871 12.6223 15.3451Z" fill="#442200"/>
</svg>
