<svg width="32" height="32" viewBox="0 0 32 32" fill="none"
  xmlns="http://www.w3.org/2000/svg">
  <path d="M22.716 29.6114C13.2216 34.7371 -3.15879 7.48116 4.88299 2.51393C4.98735 2.44947 5.10895 2.40891 5.23039 2.39156L7.67535 2.04228C8.17353 1.97111 8.64698 2.28124 8.78078 2.76636L10.3452 8.43872C10.4409 8.78565 10.3428 9.15723 10.0883 9.4117L9.5 10C5.77952 13.0618 16 25.5 18 23C19.6781 20.9024 21.0041 21.9727 21.3876 22.3716C21.4661 22.4534 21.5482 22.5321 21.6425 22.595L23.8869 24.0912C24.2515 24.3343 24.4154 24.7864 24.2912 25.2067L23.1534 29.0568C23.0847 29.2895 22.9296 29.4961 22.716 29.6114Z" fill="#442200"/>
  <path d="M16.0002 7.50006C20.5002 7.50004 25.5003 11.4204 25.5002 17.5" stroke="#442200" stroke-width="1.5" stroke-linecap="round" stroke-linejoin="round"/>
  <path d="M16.0002 5C22.5002 5 28.0002 10.5 28.0002 17.5" stroke="#442200" stroke-width="1.5" stroke-linecap="round"/>
  <path d="M15.9999 9.99997C19.5 10 23 14 22.9999 17.5" stroke="#442200" stroke-width="1.5" stroke-linecap="round" stroke-linejoin="round"/>
</svg>
