<svg width="570" height="96" viewBox="0 0 570 96" fill="none" xmlns="http://www.w3.org/2000/svg">
<path d="M126.976 86.8723L109.76 69.1915V86.234H104V39H109.76V66L124.8 52.4043L128.128 56.0426L115.264 67.4043L130.944 83.0426L126.976 86.8723Z" fill="#442200"/>
<path d="M136.048 86.234V53.0426H141.616V60.2553C142.17 58.8511 142.917 57.5532 143.855 56.3617C144.794 55.1277 145.968 54.1489 147.375 53.4255C148.784 52.6596 150.426 52.2766 152.304 52.2766C152.944 52.2766 153.584 52.3191 154.224 52.4043C154.864 52.4468 155.397 52.5319 155.824 52.6596L154.096 58.5957C153.285 58.2553 152.325 58.0851 151.215 58.0851C149.637 58.0851 148.122 58.5319 146.672 59.4255C145.264 60.3191 144.09 61.7021 143.152 63.5745C142.256 65.4468 141.807 67.8298 141.807 70.7234V86.234H136.048Z" fill="#442200"/>
<path d="M173.049 87C169.891 87 167.054 86.2766 164.537 84.8298C162.019 83.3404 160.035 81.2979 158.585 78.7021C157.177 76.0638 156.472 73.0426 156.472 69.6383C156.472 66.0638 157.198 62.9787 158.649 60.383C160.099 57.7872 162.083 55.7872 164.601 54.383C167.118 52.9787 169.934 52.2766 173.049 52.2766C176.163 52.2766 178.958 52.9787 181.433 54.383C183.95 55.7872 185.934 57.7872 187.384 60.383C188.878 62.9362 189.625 65.9787 189.625 69.5106C189.625 73.0426 188.899 76.1277 187.449 78.766C185.998 81.3617 184.014 83.383 181.497 84.8298C179.022 86.2766 176.206 87 173.049 87ZM173.049 81.8936C176.419 81.8936 179.043 80.766 180.921 78.5106C182.798 76.2128 183.737 73.2553 183.737 69.6383C183.737 67.4255 183.267 65.4043 182.329 63.5745C181.39 61.7021 180.11 60.2128 178.489 59.1064C176.91 57.9574 175.096 57.383 173.049 57.383C169.678 57.383 167.054 58.4894 165.177 60.7021C163.299 62.9149 162.361 65.8511 162.361 69.5106C162.361 71.7234 162.83 73.7872 163.769 75.7021C164.707 77.5745 165.966 79.0851 167.545 80.234C169.166 81.3404 171 81.8936 173.049 81.8936Z" fill="#442200"/>
<path d="M196.643 86.234V53.0426H202.211V58.5957C203.405 56.8085 204.92 55.3191 206.755 54.1277C208.589 52.8936 210.68 52.2766 213.027 52.2766C215.672 52.2766 217.827 52.9149 219.491 54.1915C221.197 55.4681 222.392 57.1702 223.075 59.2979C224.397 57.3404 225.955 55.6808 227.747 54.3191C229.581 52.9574 231.843 52.2766 234.531 52.2766C238.157 52.2766 240.845 53.4255 242.594 55.7234C244.386 57.9787 245.283 60.9362 245.283 64.5957V86.234H239.523V65.0426C239.523 62.7447 238.989 60.8936 237.923 59.4894C236.856 58.0426 235.384 57.3191 233.507 57.3191C231.586 57.3191 229.794 58.0426 228.131 59.4894C226.509 60.8936 225.08 62.5532 223.842 64.4681V86.234H218.083V65.0426C218.083 62.7447 217.549 60.8936 216.483 59.4894C215.416 58.0426 213.944 57.3191 212.067 57.3191C210.189 57.3191 208.419 58.0213 206.755 59.4255C205.091 60.7872 203.64 62.4043 202.403 64.2766V86.234H196.643Z" fill="#442200"/>
<path d="M277.541 86.8723L260.325 69.1915V86.234H254.565V39H260.325V66L275.365 52.4043L278.693 56.0426L265.829 67.4043L281.509 83.0426L277.541 86.8723Z" fill="#442200"/>
<path d="M298.411 87C295.638 87 293.12 86.2979 290.859 84.8936C288.598 83.4894 286.784 81.5106 285.419 78.9574C284.096 76.3617 283.435 73.3191 283.435 69.8298C283.435 66.5106 284.096 63.5319 285.419 60.8936C286.784 58.2553 288.64 56.1702 290.987 54.6383C293.376 53.0638 296.107 52.2766 299.179 52.2766C301.099 52.2766 302.827 52.617 304.363 53.2979C305.942 53.9362 307.307 54.7447 308.459 55.7234V53.0426H313.707V78.1915C313.707 79.8085 314.091 80.8723 314.859 81.383C315.67 81.8511 316.544 82.0851 317.483 82.0851L316.267 86.5532C312.171 86.5532 309.696 84.8936 308.843 81.5745C307.862 82.9362 306.518 84.1915 304.811 85.3404C303.147 86.4468 301.014 87 298.411 87ZM299.691 81.8936C301.312 81.8936 302.848 81.5106 304.299 80.7447C305.75 79.9362 306.966 78.9362 307.947 77.7447V59.9362C306.795 59.1277 305.515 58.4894 304.107 58.0213C302.742 57.5106 301.291 57.2553 299.755 57.2553C297.707 57.2553 295.894 57.7872 294.315 58.8511C292.779 59.8723 291.563 61.3191 290.667 63.1915C289.771 65.0213 289.323 67.1702 289.323 69.6383C289.323 72.0213 289.771 74.1489 290.667 76.0213C291.563 77.8511 292.8 79.2979 294.379 80.3617C295.958 81.383 297.728 81.8936 299.691 81.8936Z" fill="#442200"/>
<path d="M340.202 86.234V81.7021L358.571 58.0213H340.587V53.0426H365.611V57.4468L347.307 81.1277H365.931V86.234H340.202Z" fill="#442200"/>
<path d="M384.613 87C381.882 87 379.386 86.2979 377.125 84.8936C374.864 83.4894 373.072 81.5106 371.749 78.9574C370.426 76.3617 369.765 73.3191 369.765 69.8298C369.765 66.4681 370.426 63.4681 371.749 60.8298C373.114 58.1915 374.906 56.1064 377.125 54.5745C379.386 53.0426 381.861 52.2766 384.549 52.2766C386.768 52.2766 388.666 52.7234 390.245 53.617C391.866 54.5106 393.125 55.4255 394.021 56.3617V39H399.781V78.1915C399.781 79.8085 400.165 80.8723 400.933 81.383C401.744 81.8511 402.618 82.0851 403.557 82.0851L402.341 86.5532C398.288 86.5532 395.813 84.9362 394.917 81.7021C393.978 83.0213 392.656 84.234 390.949 85.3404C389.285 86.4468 387.173 87 384.613 87ZM385.893 81.8936C387.472 81.8936 388.965 81.5319 390.373 80.8085C391.824 80.0426 393.04 79.0638 394.021 77.8723V61.4043C393.21 60.383 392.08 59.4468 390.629 58.5957C389.178 57.7021 387.578 57.2553 385.829 57.2553C383.781 57.2553 381.989 57.8085 380.453 58.9149C378.917 60.0213 377.722 61.5106 376.869 63.383C376.058 65.2128 375.653 67.2979 375.653 69.6383C375.653 71.9787 376.101 74.0851 376.997 75.9574C377.893 77.7872 379.109 79.234 380.645 80.2979C382.224 81.3617 383.973 81.8936 385.893 81.8936Z" fill="#442200"/>
<path d="M410.615 86.234V53.0426H416.183V60.2553C416.738 58.8511 417.484 57.5532 418.423 56.3617C419.362 55.1277 420.535 54.1489 421.943 53.4255C423.351 52.6596 424.994 52.2766 426.871 52.2766C427.511 52.2766 428.151 52.3191 428.791 52.4043C429.431 52.4468 429.964 52.5319 430.391 52.6596L428.663 58.5957C427.852 58.2553 426.892 58.0851 425.783 58.0851C424.204 58.0851 422.69 58.5319 421.239 59.4255C419.831 60.3191 418.658 61.7021 417.719 63.5745C416.823 65.4468 416.375 67.8298 416.375 70.7234V86.234H410.615Z" fill="#442200"/>
<path d="M447.616 87C444.459 87 441.621 86.2766 439.104 84.8298C436.587 83.3404 434.603 81.2979 433.152 78.7021C431.744 76.0638 431.04 73.0426 431.04 69.6383C431.04 66.0638 431.765 62.9787 433.216 60.383C434.667 57.7872 436.651 55.7872 439.168 54.383C441.685 52.9787 444.501 52.2766 447.616 52.2766C450.731 52.2766 453.525 52.9787 456 54.383C458.517 55.7872 460.501 57.7872 461.952 60.383C463.445 62.9362 464.192 65.9787 464.192 69.5106C464.192 73.0426 463.467 76.1277 462.016 78.766C460.565 81.3617 458.581 83.383 456.064 84.8298C453.589 86.2766 450.773 87 447.616 87ZM447.616 81.8936C450.987 81.8936 453.611 80.766 455.488 78.5106C457.365 76.2128 458.304 73.2553 458.304 69.6383C458.304 67.4255 457.835 65.4043 456.896 63.5745C455.957 61.7021 454.677 60.2128 453.056 59.1064C451.477 57.9574 449.664 57.383 447.616 57.383C444.245 57.383 441.621 58.4894 439.744 60.7021C437.867 62.9149 436.928 65.8511 436.928 69.5106C436.928 71.7234 437.397 73.7872 438.336 75.7021C439.275 77.5745 440.533 79.0851 442.112 80.234C443.733 81.3404 445.568 81.8936 447.616 81.8936Z" fill="#442200"/>
<path d="M477.561 86.234L467.065 54.5745L472.377 52.7234L480.953 79.7234L488.761 55.4043H494.969L502.585 79.7234L511.097 52.7234L516.217 54.5745L505.657 86.234H499.321L491.641 61.5319L483.897 86.234H477.561Z" fill="#442200"/>
<path d="M522.32 86.234V53.0426H528.08V86.234H522.32ZM525.2 47.3617C524.091 47.3617 523.131 46.9574 522.32 46.1489C521.552 45.3404 521.168 44.4043 521.168 43.3404C521.168 42.1064 521.531 41.1277 522.256 40.4043C522.981 39.6808 523.963 39.3191 525.2 39.3191C526.309 39.3191 527.248 39.7234 528.016 40.5319C528.827 41.2979 529.232 42.234 529.232 43.3404C529.232 44.5319 528.869 45.5106 528.144 46.2766C527.419 47 526.437 47.3617 525.2 47.3617Z" fill="#442200"/>
<path d="M550.416 87C547.643 87 545.125 86.2979 542.864 84.8936C540.603 83.4894 538.789 81.5106 537.424 78.9574C536.101 76.3617 535.44 73.3191 535.44 69.8298C535.44 66.5106 536.101 63.5319 537.424 60.8936C538.789 58.2553 540.645 56.1702 542.992 54.6383C545.381 53.0638 548.112 52.2766 551.184 52.2766C553.104 52.2766 554.832 52.617 556.368 53.2979C557.947 53.9362 559.312 54.7447 560.464 55.7234V53.0426H565.712V78.1915C565.712 79.8085 566.096 80.8723 566.864 81.383C567.675 81.8511 568.549 82.0851 569.488 82.0851L568.272 86.5532C564.176 86.5532 561.701 84.8936 560.848 81.5745C559.867 82.9362 558.523 84.1915 556.816 85.3404C555.152 86.4468 553.019 87 550.416 87ZM551.696 81.8936C553.317 81.8936 554.853 81.5106 556.304 80.7447C557.755 79.9362 558.971 78.9362 559.952 77.7447V59.9362C558.8 59.1277 557.52 58.4894 556.112 58.0213C554.747 57.5106 553.296 57.2553 551.76 57.2553C549.712 57.2553 547.899 57.7872 546.32 58.8511C544.784 59.8723 543.568 61.3191 542.672 63.1915C541.776 65.0213 541.328 67.1702 541.328 69.6383C541.328 72.0213 541.776 74.1489 542.672 76.0213C543.568 77.8511 544.805 79.2979 546.384 80.3617C547.963 81.383 549.733 81.8936 551.696 81.8936Z" fill="#442200"/>
<g clip-path="url(#clip0_13_37)">
<path fill-rule="evenodd" clip-rule="evenodd" d="M6.40733 28.4712C9.03428 26.6205 12.1904 25.6246 15.4286 25.6246C15.7187 25.6246 16.0068 25.6726 16.2805 25.7666C23.9316 28.3927 29.779 29.6206 35.6484 29.6116C41.5317 29.6026 47.6245 28.351 55.7728 25.7489C56.0307 25.6665 56.3002 25.6246 56.5714 25.6246C58.5975 25.6246 60.6038 26.0147 62.4757 26.7725C64.3476 27.5304 66.0484 28.6412 67.4811 30.0416C68.9137 31.4419 70.0502 33.1044 70.8256 34.934C71.6003 36.7621 71.9993 38.7213 72 40.7C72.0048 43.0436 71.4489 45.3558 70.3766 47.4519C69.5036 49.1585 68.3081 50.6834 66.8571 51.948L66.8572 77.4287C66.8572 82.7175 64.0742 87.3744 60.2805 90.6422C56.4944 93.9035 51.4604 96 46.5 96H12.8571C10.8112 96 8.84903 95.2056 7.40232 93.7915C5.95561 92.3775 5.14286 90.4596 5.14286 88.4598V51.9454C3.07303 50.1359 1.53468 47.8077 0.701791 45.2015C-0.263731 42.1804 -0.232261 38.9389 0.791743 35.9362C1.81575 32.9335 3.78037 30.3218 6.40733 28.4712ZM15.0162 30.6595C13.0028 30.7384 11.054 31.394 9.41441 32.5491C7.66311 33.7829 6.35336 35.524 5.67069 37.5258C4.98802 39.5276 4.96704 41.6886 5.61072 43.7027C6.2544 45.7168 7.53011 47.4819 9.25714 48.748C9.90464 49.2226 10.2857 49.9676 10.2857 50.7587V88.4598C10.2857 89.1264 10.5566 89.7657 11.0389 90.237C11.5211 90.7084 12.1752 90.9732 12.8571 90.9732H46.5C50.0396 90.9732 53.8985 89.4393 56.8802 86.8708C59.8544 84.3089 61.7143 80.9368 61.7143 77.4287L61.7143 50.7587C61.7143 49.9658 62.0971 49.2194 62.747 48.7449C64.0255 47.8116 65.063 46.5989 65.7767 45.2038C66.4903 43.8087 66.8604 42.2699 66.8571 40.7101V40.705C66.8571 39.3848 66.5911 38.0775 66.0742 36.8577C65.5573 35.6379 64.7996 34.5296 63.8445 33.5961C62.8894 32.6625 61.7555 31.9219 60.5076 31.4167C59.3785 30.9596 58.1761 30.7032 56.9569 30.6585C48.7715 33.2493 42.2033 34.6284 35.6565 34.6384C29.1094 34.6484 22.7644 33.2894 15.0162 30.6595Z" fill="#442200"/>
</g>
<path fill-rule="evenodd" clip-rule="evenodd" d="M57.4175 75.4883C58.2377 75.6017 58.8086 76.3436 58.6926 77.1454C57.8867 82.7138 53.8603 86.0606 49.3639 87.1593C48.5602 87.3557 47.7458 86.8781 47.5449 86.0925C47.344 85.307 47.8326 84.511 48.6363 84.3146C52.1399 83.4584 55.1135 80.9406 55.7222 76.7346C55.8382 75.9329 56.5972 75.3749 57.4175 75.4883Z" fill="#442200" fill-opacity="0.5"/>
<path d="M46.7705 25.0676C43.8135 27.5576 42.1652 28.2583 38.1933 27.9545C38.4999 23.181 39.4999 22.6923 42.3838 20.0904C45.3408 17.6005 48.4816 15.7945 54.2559 14.4291C52.6633 18.3365 49.7276 22.5777 46.7705 25.0676Z" fill="#9FB50E"/>
<path d="M29.5497 4.11469C31.3281 13.0194 32.3574 18.8961 34.2111 28.1057C34.3294 28.6932 35.0182 28.9439 35.6287 28.9946C36.204 29.0423 36.9868 28.8176 36.9765 28.2533L36.5221 3.38094C36.4774 0.936168 33.9101 -0.683267 31.6126 0.284098C30.0887 0.925723 29.2318 2.52292 29.5497 4.11469Z" fill="#442200"/>
<defs>
<clipPath id="clip0_13_37">
<rect width="72" height="70.3754" fill="white" transform="translate(0 25.6246)"/>
</clipPath>
</defs>
</svg>
