<svg width="72" height="96" fill="none" xmlns="http://www.w3.org/2000/svg"><g clip-path="url('#clip0_13_37')"><path fill-rule="evenodd" clip-rule="evenodd" d="M6.407 28.471a15.671 15.671 0 0 1 9.022-2.846c.29 0 .578.048.851.142 7.652 2.626 13.499 3.854 19.368 3.845 5.884-.01 11.976-1.261 20.125-3.863.258-.082.527-.124.798-.124 2.026 0 4.033.39 5.905 1.148a15.457 15.457 0 0 1 5.005 3.269 15.064 15.064 0 0 1 3.345 4.892A14.786 14.786 0 0 1 72 40.7a14.753 14.753 0 0 1-1.623 6.752 15.072 15.072 0 0 1-3.52 4.496v25.48c0 5.29-2.783 9.946-6.576 13.214C56.494 93.903 51.46 96 46.5 96H12.857a7.805 7.805 0 0 1-5.455-2.209 7.455 7.455 0 0 1-2.26-5.331V51.945a15.049 15.049 0 0 1-4.44-6.743 14.757 14.757 0 0 1 .09-9.266 15.108 15.108 0 0 1 5.615-7.465Zm8.61 2.189a10.44 10.44 0 0 0-5.603 1.89 10.073 10.073 0 0 0-3.743 4.976 9.838 9.838 0 0 0-.06 6.177 10.06 10.06 0 0 0 3.646 5.045 2.495 2.495 0 0 1 1.029 2.01V88.46c0 .666.27 1.306.753 1.777a2.602 2.602 0 0 0 1.818.736H46.5c3.54 0 7.398-1.534 10.38-4.102 2.974-2.562 4.834-5.934 4.834-9.442v-26.67c0-.793.383-1.54 1.033-2.014a10.062 10.062 0 0 0 3.03-3.541 9.818 9.818 0 0 0 1.08-4.494v-.005c0-1.32-.266-2.627-.783-3.847a10.04 10.04 0 0 0-2.23-3.262 10.304 10.304 0 0 0-3.336-2.18 10.489 10.489 0 0 0-3.551-.758c-8.185 2.591-14.754 3.97-21.3 3.98-6.548.01-12.893-1.349-20.64-3.978Z" fill="#f2f5de22"/></g><path fill-rule="evenodd" clip-rule="evenodd" d="M57.417 75.488c.82.114 1.392.856 1.276 1.657-.806 5.569-4.833 8.916-9.33 10.014-.803.197-1.617-.28-1.818-1.067-.201-.785.288-1.581 1.091-1.777 3.504-.857 6.477-3.374 7.086-7.58.116-.802.875-1.36 1.695-1.247Z" fill="#f2f5de22" fill-opacity=".5"/><path d="M46.77 25.068c-2.957 2.49-4.605 3.19-8.577 2.886.307-4.773 1.307-5.262 4.19-7.864 2.958-2.49 6.099-4.296 11.873-5.66-1.593 3.907-4.528 8.148-7.486 10.638Z" fill="#9FB50E44"/><path d="M29.55 4.115c1.778 8.904 2.807 14.781 4.661 23.99.118.588.807.839 1.418.89.575.047 1.358-.177 1.348-.742l-.455-24.872C36.477.936 33.91-.683 31.612.284c-1.523.642-2.38 2.239-2.062 3.83Z" fill="#f2f5de22"/><defs><clipPath id="clip0_13_37"><path fill="#fff" transform="translate(0 25.625)" d="M0 0h72v70.375H0z"/></clipPath></defs></svg>