<svg width="570" height="96" fill="none" xmlns="http://www.w3.org/2000/svg"><path d="m126.976 86.872-17.216-17.68v17.042H104V39h5.76v27l15.04-13.596 3.328 3.639-12.864 11.361 15.68 15.639-3.968 3.83ZM136.048 86.234V53.043h5.568v7.212a15.403 15.403 0 0 1 2.239-3.893 10.252 10.252 0 0 1 3.52-2.937c1.409-.765 3.051-1.148 4.929-1.148.64 0 1.28.042 1.92.127.64.043 1.173.128 1.6.256l-1.728 5.936c-.811-.34-1.771-.51-2.881-.51-1.578 0-3.093.446-4.543 1.34-1.408.893-2.582 2.276-3.52 4.148-.896 1.873-1.345 4.256-1.345 7.15v15.51h-5.759ZM173.049 87c-3.158 0-5.995-.723-8.512-2.17-2.518-1.49-4.502-3.532-5.952-6.128-1.408-2.638-2.113-5.66-2.113-9.064 0-3.574.726-6.66 2.177-9.255 1.45-2.596 3.434-4.596 5.952-6 2.517-1.404 5.333-2.106 8.448-2.106 3.114 0 5.909.702 8.384 2.106 2.517 1.404 4.501 3.404 5.951 6 1.494 2.553 2.241 5.596 2.241 9.128s-.726 6.617-2.176 9.255c-1.451 2.596-3.435 4.617-5.952 6.064-2.475 1.447-5.291 2.17-8.448 2.17Zm0-5.106c3.37 0 5.994-1.128 7.872-3.383 1.877-2.298 2.816-5.256 2.816-8.873 0-2.213-.47-4.234-1.408-6.064-.939-1.872-2.219-3.361-3.84-4.468-1.579-1.149-3.393-1.723-5.44-1.723-3.371 0-5.995 1.106-7.872 3.32-1.878 2.212-2.816 5.148-2.816 8.808 0 2.212.469 4.276 1.408 6.191.938 1.873 2.197 3.383 3.776 4.532 1.621 1.106 3.455 1.66 5.504 1.66ZM196.643 86.234V53.043h5.568v5.553a15.648 15.648 0 0 1 4.544-4.468c1.834-1.234 3.925-1.851 6.272-1.851 2.645 0 4.8.638 6.464 1.914 1.706 1.277 2.901 2.98 3.584 5.107 1.322-1.958 2.88-3.617 4.672-4.979 1.834-1.362 4.096-2.042 6.784-2.042 3.626 0 6.314 1.148 8.063 3.446 1.792 2.256 2.689 5.213 2.689 8.873v21.638h-5.76V65.043c0-2.298-.534-4.15-1.6-5.554-1.067-1.446-2.539-2.17-4.416-2.17-1.921 0-3.713.724-5.376 2.17-1.622 1.405-3.051 3.064-4.289 4.98v21.765h-5.759V65.043c0-2.298-.534-4.15-1.6-5.554-1.067-1.446-2.539-2.17-4.416-2.17-1.878 0-3.648.702-5.312 2.106a21.61 21.61 0 0 0-4.352 4.852v21.957h-5.76ZM277.541 86.872l-17.216-17.68v17.042h-5.76V39h5.76v27l15.04-13.596 3.328 3.639-12.864 11.361 15.68 15.639-3.968 3.83ZM298.411 87c-2.773 0-5.291-.702-7.552-2.106-2.261-1.405-4.075-3.383-5.44-5.937-1.323-2.595-1.984-5.638-1.984-9.127 0-3.32.661-6.298 1.984-8.936 1.365-2.639 3.221-4.724 5.568-6.256 2.389-1.574 5.12-2.361 8.192-2.361 1.92 0 3.648.34 5.184 1.02 1.579.64 2.944 1.448 4.096 2.426v-2.68h5.248v25.149c0 1.617.384 2.68 1.152 3.191a5.16 5.16 0 0 0 2.624.702l-1.216 4.468c-4.096 0-6.571-1.66-7.424-4.978-.981 1.361-2.325 2.617-4.032 3.765-1.664 1.107-3.797 1.66-6.4 1.66Zm1.28-5.106a9.733 9.733 0 0 0 4.608-1.15c1.451-.808 2.667-1.808 3.648-3V59.937a14.728 14.728 0 0 0-3.84-1.915 12.318 12.318 0 0 0-4.352-.766c-2.048 0-3.861.532-5.44 1.596-1.536 1.021-2.752 2.468-3.648 4.34-.896 1.83-1.344 3.98-1.344 6.447 0 2.383.448 4.51 1.344 6.383.896 1.83 2.133 3.277 3.712 4.34 1.579 1.022 3.349 1.533 5.312 1.533ZM340.202 86.234v-4.532l18.369-23.68h-17.984v-4.98h25.024v4.405l-18.304 23.68h18.624v5.107h-25.729ZM384.613 87c-2.731 0-5.227-.702-7.488-2.106-2.261-1.405-4.053-3.383-5.376-5.937-1.323-2.595-1.984-5.638-1.984-9.127 0-3.362.661-6.362 1.984-9 1.365-2.639 3.157-4.724 5.376-6.255 2.261-1.532 4.736-2.298 7.424-2.298 2.219 0 4.117.446 5.696 1.34 1.621.894 2.88 1.809 3.776 2.745V39h5.76v39.192c0 1.617.384 2.68 1.152 3.191a5.16 5.16 0 0 0 2.624.702l-1.216 4.468c-4.053 0-6.528-1.617-7.424-4.85-.939 1.318-2.261 2.531-3.968 3.637-1.664 1.107-3.776 1.66-6.336 1.66Zm1.28-5.106a9.668 9.668 0 0 0 4.48-1.086c1.451-.765 2.667-1.744 3.648-2.936V61.404c-.811-1.021-1.941-1.957-3.392-2.808-1.451-.894-3.051-1.34-4.8-1.34-2.048 0-3.84.553-5.376 1.659-1.536 1.106-2.731 2.596-3.584 4.468-.811 1.83-1.216 3.915-1.216 6.255s.448 4.447 1.344 6.32c.896 1.83 2.112 3.276 3.648 4.34a9.188 9.188 0 0 0 5.248 1.596ZM410.615 86.234V53.043h5.568v7.212a15.406 15.406 0 0 1 2.24-3.893 10.243 10.243 0 0 1 3.52-2.937c1.408-.765 3.051-1.148 4.928-1.148.64 0 1.28.042 1.92.127.64.043 1.173.128 1.6.256l-1.728 5.936c-.811-.34-1.771-.51-2.88-.51-1.579 0-3.093.446-4.544 1.34-1.408.893-2.581 2.276-3.52 4.148-.896 1.873-1.344 4.256-1.344 7.15v15.51h-5.76ZM447.616 87c-3.157 0-5.995-.723-8.512-2.17-2.517-1.49-4.501-3.532-5.952-6.128-1.408-2.638-2.112-5.66-2.112-9.064 0-3.574.725-6.66 2.176-9.255 1.451-2.596 3.435-4.596 5.952-6s5.333-2.106 8.448-2.106 5.909.702 8.384 2.106c2.517 1.404 4.501 3.404 5.952 6 1.493 2.553 2.24 5.596 2.24 9.128s-.725 6.617-2.176 9.255c-1.451 2.596-3.435 4.617-5.952 6.064-2.475 1.447-5.291 2.17-8.448 2.17Zm0-5.106c3.371 0 5.995-1.128 7.872-3.383 1.877-2.298 2.816-5.256 2.816-8.873 0-2.213-.469-4.234-1.408-6.064-.939-1.872-2.219-3.361-3.84-4.468-1.579-1.149-3.392-1.723-5.44-1.723-3.371 0-5.995 1.106-7.872 3.32-1.877 2.212-2.816 5.148-2.816 8.808 0 2.212.469 4.276 1.408 6.191.939 1.873 2.197 3.383 3.776 4.532 1.621 1.106 3.456 1.66 5.504 1.66ZM477.561 86.234l-10.496-31.66 5.312-1.85 8.576 27 7.808-24.32h6.208l7.616 24.32 8.512-27 5.12 1.85-10.56 31.66h-6.336l-7.68-24.702-7.744 24.702h-6.336ZM522.32 86.234V53.043h5.76v33.191h-5.76Zm2.88-38.872c-1.109 0-2.069-.405-2.88-1.213-.768-.809-1.152-1.745-1.152-2.809 0-1.234.363-2.212 1.088-2.936.725-.723 1.707-1.085 2.944-1.085 1.109 0 2.048.404 2.816 1.213.811.766 1.216 1.702 1.216 2.808 0 1.192-.363 2.17-1.088 2.937-.725.723-1.707 1.085-2.944 1.085ZM550.416 87c-2.773 0-5.291-.702-7.552-2.106-2.261-1.405-4.075-3.383-5.44-5.937-1.323-2.595-1.984-5.638-1.984-9.127 0-3.32.661-6.298 1.984-8.936 1.365-2.639 3.221-4.724 5.568-6.256 2.389-1.574 5.12-2.361 8.192-2.361 1.92 0 3.648.34 5.184 1.02 1.579.64 2.944 1.448 4.096 2.426v-2.68h5.248v25.149c0 1.617.384 2.68 1.152 3.191a5.16 5.16 0 0 0 2.624.702l-1.216 4.468c-4.096 0-6.571-1.66-7.424-4.978-.981 1.361-2.325 2.617-4.032 3.765-1.664 1.107-3.797 1.66-6.4 1.66Zm1.28-5.106a9.733 9.733 0 0 0 4.608-1.15c1.451-.808 2.667-1.808 3.648-3V59.937a14.728 14.728 0 0 0-3.84-1.915 12.318 12.318 0 0 0-4.352-.766c-2.048 0-3.861.532-5.44 1.596-1.536 1.021-2.752 2.468-3.648 4.34-.896 1.83-1.344 3.98-1.344 6.447 0 2.383.448 4.51 1.344 6.383.896 1.83 2.133 3.277 3.712 4.34 1.579 1.022 3.349 1.533 5.312 1.533Z" fill="#f2f5de"/><g clip-path="url('#clip0_13_37')"><path fill-rule="evenodd" clip-rule="evenodd" d="M6.407 28.471a15.671 15.671 0 0 1 9.022-2.846c.29 0 .578.048.851.142 7.652 2.626 13.499 3.854 19.368 3.845 5.884-.01 11.976-1.261 20.125-3.863.258-.082.527-.124.798-.124 2.026 0 4.033.39 5.905 1.148a15.457 15.457 0 0 1 5.005 3.269 15.064 15.064 0 0 1 3.345 4.892A14.786 14.786 0 0 1 72 40.7a14.753 14.753 0 0 1-1.623 6.752 15.072 15.072 0 0 1-3.52 4.496v25.48c0 5.29-2.783 9.946-6.576 13.214C56.494 93.903 51.46 96 46.5 96H12.857a7.805 7.805 0 0 1-5.455-2.209 7.455 7.455 0 0 1-2.26-5.331V51.945a15.049 15.049 0 0 1-4.44-6.743 14.757 14.757 0 0 1 .09-9.266 15.108 15.108 0 0 1 5.615-7.465Zm8.61 2.189a10.44 10.44 0 0 0-5.603 1.89 10.073 10.073 0 0 0-3.743 4.976 9.838 9.838 0 0 0-.06 6.177 10.06 10.06 0 0 0 3.646 5.045 2.495 2.495 0 0 1 1.029 2.01V88.46c0 .666.27 1.306.753 1.777a2.602 2.602 0 0 0 1.818.736H46.5c3.54 0 7.398-1.534 10.38-4.102 2.974-2.562 4.834-5.934 4.834-9.442v-26.67c0-.793.383-1.54 1.033-2.014a10.062 10.062 0 0 0 3.03-3.541 9.818 9.818 0 0 0 1.08-4.494v-.005c0-1.32-.266-2.627-.783-3.847a10.04 10.04 0 0 0-2.23-3.262 10.304 10.304 0 0 0-3.336-2.18 10.489 10.489 0 0 0-3.551-.758c-8.185 2.591-14.754 3.97-21.3 3.98-6.548.01-12.893-1.349-20.64-3.978Z" fill="#f2f5de"/></g><path fill-rule="evenodd" clip-rule="evenodd" d="M57.417 75.488c.82.114 1.392.856 1.276 1.657-.806 5.569-4.833 8.916-9.33 10.014-.803.197-1.617-.28-1.818-1.067-.201-.785.288-1.581 1.091-1.777 3.504-.857 6.477-3.374 7.086-7.58.116-.802.875-1.36 1.695-1.247Z" fill="#f2f5de" fill-opacity=".5"/><path d="M46.77 25.068c-2.957 2.49-4.605 3.19-8.577 2.886.307-4.773 1.307-5.262 4.19-7.864 2.958-2.49 6.099-4.296 11.873-5.66-1.593 3.907-4.528 8.148-7.486 10.638Z" fill="#9FB50E"/><path d="M29.55 4.115c1.778 8.904 2.807 14.781 4.661 23.99.118.588.807.839 1.418.89.575.047 1.358-.177 1.348-.742l-.455-24.872C36.477.936 33.91-.683 31.612.284c-1.523.642-2.38 2.239-2.062 3.83Z" fill="#f2f5de"/><defs><clipPath id="clip0_13_37"><path fill="#fff" transform="translate(0 25.625)" d="M0 0h72v70.375H0z"/></clipPath></defs></svg>